<svg xmlns="http://www.w3.org/2000/svg" xmlns:xlink="http://www.w3.org/1999/xlink" width="1260" height="667.88"><rect width="1260" height="667.88" rx="5" ry="5" class="a"></rect><svg y="0%" x="0%"><circle cx="20" cy="20" r="6" class="b"></circle><circle cx="40" cy="20" r="6" class="c"></circle><circle cx="60" cy="20" r="6" class="d"></circle></svg><svg height="607.88" viewBox="0 0 122 60.788" width="1220" x="15" xmlns="http://www.w3.org/2000/svg" xmlns:xlink="http://www.w3.org/1999/xlink" y="50"><style>.a{fill:rgb(40,45,53)}.b{fill:#ff5f58}.c{fill:#ffbd2e}.d{fill:#18c132}.e{font-family:Monaco,Consolas,Menlo,'Bitstream Vera Sans Mono','Powerline Symbols',monospace}.f{fill:rgb(168,204,140);font-weight:bold}.g{fill:rgb(102,194,205);font-weight:bold}.h{fill:rgb(185,192,203)}.i{fill:rgb(168,204,140)}.j{fill:rgb(102,194,205)}.k{fill:rgb(113,190,242)}.l{fill:rgb(185,192,203);text-decoration:underline}.m{fill:rgb(232,131,136)}.n{fill:rgb(185,191,202)}.o{fill:rgb(232,131,136);font-weight:bold}.p{fill:transparent}.q{fill:rgb(111,118,131)}.s{animation-duration:11.734622s;animation-iteration-count:infinite;animation-name:r;animation-timing-function:steps(1,end)}@keyframes r{0%{transform:translateX(-0px)}8.7%{transform:translateX(-122px)}8.9%{transform:translateX(-244px)}8.9%{transform:translateX(-366px)}13.1%{transform:translateX(-488px)}14.6%{transform:translateX(-610px)}17.8%{transform:translateX(-732px)}19%{transform:translateX(-854px)}20.5%{transform:translateX(-976px)}22%{transform:translateX(-1098px)}22.6%{transform:translateX(-1220px)}23.6%{transform:translateX(-1342px)}27.8%{transform:translateX(-1464px)}29.2%{transform:translateX(-1586px)}30.6%{transform:translateX(-1708px)}31.4%{transform:translateX(-1830px)}36%{transform:translateX(-1952px)}38.1%{transform:translateX(-2074px)}38.9%{transform:translateX(-2196px)}40.2%{transform:translateX(-2318px)}41.8%{transform:translateX(-2440px)}44.3%{transform:translateX(-2562px)}44.3%{transform:translateX(-2684px)}44.3%{transform:translateX(-2806px)}52.6%{transform:translateX(-2928px)}52.6%{transform:translateX(-3050px)}52.6%{transform:translateX(-3172px)}52.6%{transform:translateX(-3294px)}52.6%{transform:translateX(-3416px)}53.3%{transform:translateX(-3538px)}53.3%{transform:translateX(-3660px)}53.3%{transform:translateX(-3782px)}54%{transform:translateX(-3904px)}54%{transform:translateX(-4026px)}54.7%{transform:translateX(-4148px)}54.7%{transform:translateX(-4270px)}55.4%{transform:translateX(-4392px)}55.4%{transform:translateX(-4514px)}56.1%{transform:translateX(-4636px)}56.1%{transform:translateX(-4758px)}56.8%{transform:translateX(-4880px)}56.8%{transform:translateX(-5002px)}57.5%{transform:translateX(-5124px)}57.5%{transform:translateX(-5246px)}58.2%{transform:translateX(-5368px)}58.2%{transform:translateX(-5490px)}58.9%{transform:translateX(-5612px)}58.9%{transform:translateX(-5734px)}59.6%{transform:translateX(-5856px)}59.6%{transform:translateX(-5978px)}60.4%{transform:translateX(-6100px)}60.4%{transform:translateX(-6222px)}61.1%{transform:translateX(-6344px)}61.1%{transform:translateX(-6466px)}61.8%{transform:translateX(-6588px)}61.8%{transform:translateX(-6710px)}62.5%{transform:translateX(-6832px)}62.5%{transform:translateX(-6954px)}63.2%{transform:translateX(-7076px)}63.2%{transform:translateX(-7198px)}63.9%{transform:translateX(-7320px)}63.9%{transform:translateX(-7442px)}64.6%{transform:translateX(-7564px)}64.6%{transform:translateX(-7686px)}66.7%{transform:translateX(-7808px)}66.7%{transform:translateX(-7930px)}68.1%{transform:translateX(-8052px)}68.1%{transform:translateX(-8174px)}68.8%{transform:translateX(-8296px)}68.8%{transform:translateX(-8418px)}69.5%{transform:translateX(-8540px)}69.5%{transform:translateX(-8662px)}70.2%{transform:translateX(-8784px)}70.2%{transform:translateX(-8906px)}71.7%{transform:translateX(-9028px)}71.7%{transform:translateX(-9150px)}72.5%{transform:translateX(-9272px)}72.5%{transform:translateX(-9394px)}74.8%{transform:translateX(-9516px)}74.8%{transform:translateX(-9638px)}75.5%{transform:translateX(-9760px)}75.5%{transform:translateX(-9882px)}76.2%{transform:translateX(-10004px)}76.2%{transform:translateX(-10126px)}76.9%{transform:translateX(-10248px)}76.9%{transform:translateX(-10370px)}82.2%{transform:translateX(-10492px)}82.3%{transform:translateX(-10614px)}82.3%{transform:translateX(-10736px)}82.7%{transform:translateX(-10858px)}82.8%{transform:translateX(-10980px)}82.8%{transform:translateX(-11102px)}83%{transform:translateX(-11224px)}83%{transform:translateX(-11346px)}83%{transform:translateX(-11468px)}100%{transform:translateX(-11590px)}}</style><g font-size="1.67" class="e"><defs><symbol id="1"><text x="0" y="1.67" class="f">➜</text><text x="3.006" y="1.67" class="g">demo</text></symbol><symbol id="2"><text x="0" y="1.67" class="f">➜</text><text x="3.006" y="1.67" class="g">demo</text><text x="8.016" y="1.67" class="h">adviser</text></symbol><symbol id="3"><text x="0" y="1.67" class="f">➜</text><text x="3.006" y="1.67" class="g">demo</text><text x="8.016" y="1.67" class="h">adviser</text><text x="16.032" y="1.67" class="h">--verbose</text></symbol><symbol id="4"><text x="0" y="1.67" class="h">Adviser</text><text x="8.016" y="1.67" class="h">v0.5.1</text></symbol><symbol id="5"><text x="0" y="1.67" class="i">✔</text><text x="2.004" y="1.67" class="h">Rules</text><text x="8.016" y="1.67" class="h">loaded</text></symbol><symbol id="6"><text x="0" y="1.67" class="j">⠋</text><text x="2.004" y="1.67" class="h">The</text><text x="6.012" y="1.67" class="h">engine</text><text x="13.026" y="1.67" class="h">is</text><text x="16.032" y="1.67" class="h">executing</text><text x="26.052" y="1.67" class="h">the</text><text x="30.059999999999995" y="1.67" class="h">rules</text></symbol><symbol id="7"><text x="0" y="1.67" class="j">⠙</text><text x="2.004" y="1.67" class="h">The</text><text x="6.012" y="1.67" class="h">engine</text><text x="13.026" y="1.67" class="h">is</text><text x="16.032" y="1.67" class="h">executing</text><text x="26.052" y="1.67" class="h">the</text><text x="30.059999999999995" y="1.67" class="h">rules</text></symbol><symbol id="8"><text x="0" y="1.67" class="j">⠹</text><text x="2.004" y="1.67" class="h">The</text><text x="6.012" y="1.67" class="h">engine</text><text x="13.026" y="1.67" class="h">is</text><text x="16.032" y="1.67" class="h">executing</text><text x="26.052" y="1.67" class="h">the</text><text x="30.059999999999995" y="1.67" class="h">rules</text></symbol><symbol id="9"><text x="0" y="1.67" class="j">⠸</text><text x="2.004" y="1.67" class="h">The</text><text x="6.012" y="1.67" class="h">engine</text><text x="13.026" y="1.67" class="h">is</text><text x="16.032" y="1.67" class="h">executing</text><text x="26.052" y="1.67" class="h">the</text><text x="30.059999999999995" y="1.67" class="h">rules</text></symbol><symbol id="10"><text x="0" y="1.67" class="j">⠼</text><text x="2.004" y="1.67" class="h">The</text><text x="6.012" y="1.67" class="h">engine</text><text x="13.026" y="1.67" class="h">is</text><text x="16.032" y="1.67" class="h">executing</text><text x="26.052" y="1.67" class="h">the</text><text x="30.059999999999995" y="1.67" class="h">rules</text></symbol><symbol id="11"><text x="0" y="1.67" class="j">⠴</text><text x="2.004" y="1.67" class="h">The</text><text x="6.012" y="1.67" class="h">engine</text><text x="13.026" y="1.67" class="h">is</text><text x="16.032" y="1.67" class="h">executing</text><text x="26.052" y="1.67" class="h">the</text><text x="30.059999999999995" y="1.67" class="h">rules</text></symbol><symbol id="12"><text x="0" y="1.67" class="j">⠦</text><text x="2.004" y="1.67" class="h">The</text><text x="6.012" y="1.67" class="h">engine</text><text x="13.026" y="1.67" class="h">is</text><text x="16.032" y="1.67" class="h">executing</text><text x="26.052" y="1.67" class="h">the</text><text x="30.059999999999995" y="1.67" class="h">rules</text></symbol><symbol id="13"><text x="0" y="1.67" class="j">⠧</text><text x="2.004" y="1.67" class="h">The</text><text x="6.012" y="1.67" class="h">engine</text><text x="13.026" y="1.67" class="h">is</text><text x="16.032" y="1.67" class="h">executing</text><text x="26.052" y="1.67" class="h">the</text><text x="30.059999999999995" y="1.67" class="h">rules</text></symbol><symbol id="14"><text x="0" y="1.67" class="j">⠇</text><text x="2.004" y="1.67" class="h">The</text><text x="6.012" y="1.67" class="h">engine</text><text x="13.026" y="1.67" class="h">is</text><text x="16.032" y="1.67" class="h">executing</text><text x="26.052" y="1.67" class="h">the</text><text x="30.059999999999995" y="1.67" class="h">rules</text></symbol><symbol id="15"><text x="0" y="1.67" class="j">⠏</text><text x="2.004" y="1.67" class="h">The</text><text x="6.012" y="1.67" class="h">engine</text><text x="13.026" y="1.67" class="h">is</text><text x="16.032" y="1.67" class="h">executing</text><text x="26.052" y="1.67" class="h">the</text><text x="30.059999999999995" y="1.67" class="h">rules</text></symbol><symbol id="16"><text x="0" y="1.67" class="i">✔</text><text x="2.004" y="1.67" class="h">Rules</text><text x="8.016" y="1.67" class="h">executed</text></symbol><symbol id="17"><text x="2.004" y="1.67" class="k">Output</text></symbol><symbol id="18"><text x="2.004" y="1.67" class="h">Plugin:</text><text x="10.02" y="1.67" class="l">adviser</text></symbol><symbol id="19"><text x="2.004" y="1.67" class="m">error</text><text x="9.017999999999999" y="1.67" class="h">The</text><text x="13.026" y="1.67" class="h">package.json</text><text x="26.052" y="1.67" class="h">is</text><text x="29.058" y="1.67" class="h">missing</text><text x="37.074" y="1.67" class="h">the</text><text x="41.082" y="1.67" class="h">required</text><text x="50.1" y="1.67" class="h">property:</text><text x="60.11999999999999" y="1.67" class="h">private</text><text x="79.158" y="1.67" class="h">package-json-properties</text><rect height="2.171" width="10" x="104.208" y="0" class="m"></rect><text x="104.208" y="1.67" class="n">4.440603ms</text></symbol><symbol id="20"><text x="2.004" y="1.67" class="m">error</text><text x="9.017999999999999" y="1.67" class="h">The</text><text x="13.026" y="1.67" class="h">package.json</text><text x="26.052" y="1.67" class="h">includes</text><text x="35.06999999999999" y="1.67" class="h">the</text><text x="39.077999999999996" y="1.67" class="h">restricted</text><text x="50.1" y="1.67" class="h">properties:</text><text x="62.123999999999995" y="1.67" class="h">license,</text><text x="71.142" y="1.67" class="h">author</text><text x="79.158" y="1.67" class="h">package-json-properties</text><rect height="2.171" width="10" x="104.208" y="0" class="m"></rect><text x="104.208" y="1.67" class="n">4.440603ms</text></symbol><symbol id="21"><text x="2.004" y="1.67" class="m">error</text><text x="9.017999999999999" y="1.67" class="h">Your</text><text x="14.027999999999999" y="1.67" class="h">directory</text><text x="24.048" y="1.67" class="h">root</text><text x="29.058" y="1.67" class="h">is</text><text x="32.064" y="1.67" class="h">missing</text><text x="40.08" y="1.67" class="h">the</text><text x="44.087999999999994" y="1.67" class="h">required</text><text x="53.105999999999995" y="1.67" class="h">files:</text><text x="60.11999999999999" y="1.67" class="h">.eslintrc,</text><text x="71.142" y="1.67" class="h">README</text><text x="79.158" y="1.67" class="h">root-files</text><rect height="2.171" width="12" x="104.208" y="0" class="m"></rect><text x="104.208" y="1.67" class="n">971.310704ms</text></symbol><symbol id="22"><text x="2.004" y="1.67" class="o">✖</text><text x="4.008" y="1.67" class="o">3</text><text x="6.012" y="1.67" class="o">problems</text><text x="15.029999999999998" y="1.67" class="o">(3</text><text x="18.035999999999998" y="1.67" class="o">errors,</text><text x="26.052" y="1.67" class="o">0</text><text x="28.055999999999997" y="1.67" class="o">warnings)</text></symbol><symbol id="23"><text x="2.004" y="1.67" class="k">Adviser</text><text x="10.02" y="1.67" class="k">Summary</text></symbol><symbol id="24"><text x="2.004" y="1.67" class="l">Plugin</text><text x="16.032" y="1.67" class="l">Rule</text><text x="41.082" y="1.67" class="l">Status</text></symbol><symbol id="25"><text x="2.004" y="1.67" class="h">adviser</text><text x="16.032" y="1.67" class="h">package-json-properties</text><text x="41.082" y="1.67" class="i">completed</text></symbol><symbol id="26"><text x="2.004" y="1.67" class="h">adviser</text><text x="16.032" y="1.67" class="h">root-files</text><text x="41.082" y="1.67" class="i">completed</text></symbol><symbol id="27"><text x="2.004" y="1.67" class="h">dependencies</text><text x="16.032" y="1.67" class="h">package-size</text><text x="41.082" y="1.67" class="i">completed</text></symbol><symbol id="28"><text x="0" y="1.67" class="o">➜</text><text x="3.006" y="1.67" class="g">demo</text></symbol><symbol id="a"><rect height="28" width="122" x="0" y="0" class="p"></rect></symbol><symbol id="b"><rect height="2.171" width="1.1022" class="q"></rect></symbol></defs><rect height="60.788" width="122" class="a"></rect><g class="s"><svg x="0" y="0" width="11712"><svg x="0"><use xlink:href="#a"></use><use xlink:href="#b" x="-0.0040000000000000036" y="0"></use></svg><svg x="122"><use xlink:href="#a"></use><use xlink:href="#b" x="-0.0040000000000000036" y="0"></use></svg><svg x="244"><use xlink:href="#a"></use><use xlink:href="#b" x="7.996" y="0"></use><use xlink:href="#1" y="0"></use></svg><svg x="366"><use xlink:href="#a"></use><use xlink:href="#b" x="7.996" y="0"></use><use xlink:href="#1" y="0"></use></svg><svg x="488"><use xlink:href="#a"></use><use xlink:href="#b" x="8.996" y="0"></use><text x="0" y="1.67" class="f">➜</text><text x="3.006" y="1.67" class="g">demo</text><text x="8.016" y="1.67" class="h">a</text></svg><svg x="610"><use xlink:href="#a"></use><use xlink:href="#b" x="9.996" y="0"></use><text x="0" y="1.67" class="f">➜</text><text x="3.006" y="1.67" class="g">demo</text><text x="8.016" y="1.67" class="h">ad</text></svg><svg x="732"><use xlink:href="#a"></use><use xlink:href="#b" x="10.996" y="0"></use><text x="0" y="1.67" class="f">➜</text><text x="3.006" y="1.67" class="g">demo</text><text x="8.016" y="1.67" class="h">adv</text></svg><svg x="854"><use xlink:href="#a"></use><use xlink:href="#b" x="11.996" y="0"></use><text x="0" y="1.67" class="f">➜</text><text x="3.006" y="1.67" class="g">demo</text><text x="8.016" y="1.67" class="h">advi</text></svg><svg x="976"><use xlink:href="#a"></use><use xlink:href="#b" x="12.996" y="0"></use><text x="0" y="1.67" class="f">➜</text><text x="3.006" y="1.67" class="g">demo</text><text x="8.016" y="1.67" class="h">advis</text></svg><svg x="1098"><use xlink:href="#a"></use><use xlink:href="#b" x="13.996" y="0"></use><text x="0" y="1.67" class="f">➜</text><text x="3.006" y="1.67" class="g">demo</text><text x="8.016" y="1.67" class="h">advise</text></svg><svg x="1220"><use xlink:href="#a"></use><use xlink:href="#b" x="14.996" y="0"></use><use xlink:href="#2" y="0"></use></svg><svg x="1342"><use xlink:href="#a"></use><use xlink:href="#b" x="15.996" y="0"></use><use xlink:href="#2" y="0"></use></svg><svg x="1464"><use xlink:href="#a"></use><use xlink:href="#b" x="16.996" y="0"></use><text x="0" y="1.67" class="f">➜</text><text x="3.006" y="1.67" class="g">demo</text><text x="8.016" y="1.67" class="h">adviser</text><text x="16.032" y="1.67" class="h">-</text></svg><svg x="1586"><use xlink:href="#a"></use><use xlink:href="#b" x="17.996" y="0"></use><text x="0" y="1.67" class="f">➜</text><text x="3.006" y="1.67" class="g">demo</text><text x="8.016" y="1.67" class="h">adviser</text><text x="16.032" y="1.67" class="h">--</text></svg><svg x="1708"><use xlink:href="#a"></use><use xlink:href="#b" x="18.996" y="0"></use><text x="0" y="1.67" class="f">➜</text><text x="3.006" y="1.67" class="g">demo</text><text x="8.016" y="1.67" class="h">adviser</text><text x="16.032" y="1.67" class="h">--v</text></svg><svg x="1830"><use xlink:href="#a"></use><use xlink:href="#b" x="19.996" y="0"></use><text x="0" y="1.67" class="f">➜</text><text x="3.006" y="1.67" class="g">demo</text><text x="8.016" y="1.67" class="h">adviser</text><text x="16.032" y="1.67" class="h">--ve</text></svg><svg x="1952"><use xlink:href="#a"></use><use xlink:href="#b" x="20.996" y="0"></use><text x="0" y="1.67" class="f">➜</text><text x="3.006" y="1.67" class="g">demo</text><text x="8.016" y="1.67" class="h">adviser</text><text x="16.032" y="1.67" class="h">--ver</text></svg><svg x="2074"><use xlink:href="#a"></use><use xlink:href="#b" x="21.996" y="0"></use><text x="0" y="1.67" class="f">➜</text><text x="3.006" y="1.67" class="g">demo</text><text x="8.016" y="1.67" class="h">adviser</text><text x="16.032" y="1.67" class="h">--verb</text></svg><svg x="2196"><use xlink:href="#a"></use><use xlink:href="#b" x="22.996" y="0"></use><text x="0" y="1.67" class="f">➜</text><text x="3.006" y="1.67" class="g">demo</text><text x="8.016" y="1.67" class="h">adviser</text><text x="16.032" y="1.67" class="h">--verbo</text></svg><svg x="2318"><use xlink:href="#a"></use><use xlink:href="#b" x="23.996" y="0"></use><text x="0" y="1.67" class="f">➜</text><text x="3.006" y="1.67" class="g">demo</text><text x="8.016" y="1.67" class="h">adviser</text><text x="16.032" y="1.67" class="h">--verbos</text></svg><svg x="2440"><use xlink:href="#a"></use><use xlink:href="#b" x="24.996" y="0"></use><use xlink:href="#3" y="0"></use></svg><svg x="2562"><use xlink:href="#a"></use><use xlink:href="#b" x="24.996" y="0"></use><use xlink:href="#3" y="0"></use></svg><svg x="2684"><use xlink:href="#a"></use><use xlink:href="#b" x="-0.0040000000000000036" y="2.146"></use><use xlink:href="#3" y="0"></use></svg><svg x="2806"><use xlink:href="#a"></use><use xlink:href="#b" x="-0.0040000000000000036" y="2.146"></use><use xlink:href="#3" y="0"></use></svg><svg x="2928"><use xlink:href="#a"></use><use xlink:href="#b" x="-0.0040000000000000036" y="8.658999999999999"></use><use xlink:href="#3" y="0"></use><use xlink:href="#4" y="4.342"></use></svg><svg x="3050"><use xlink:href="#a"></use><use xlink:href="#b" x="-0.0040000000000000036" y="8.658999999999999"></use><use xlink:href="#3" y="0"></use><use xlink:href="#4" y="4.342"></use></svg><svg x="3172"><use xlink:href="#a"></use><use xlink:href="#b" x="-0.0040000000000000036" y="10.83"></use><use xlink:href="#3" y="0"></use><use xlink:href="#4" y="4.342"></use><use xlink:href="#5" y="8.684"></use></svg><svg x="3294"><use xlink:href="#a"></use><use xlink:href="#3" y="0"></use><use xlink:href="#4" y="4.342"></use><use xlink:href="#5" y="8.684"></use></svg><svg x="3416"><use xlink:href="#a"></use><use xlink:href="#3" y="0"></use><use xlink:href="#4" y="4.342"></use><use xlink:href="#5" y="8.684"></use><use xlink:href="#6" y="10.855"></use></svg><svg x="3538"><use xlink:href="#a"></use><use xlink:href="#3" y="0"></use><use xlink:href="#4" y="4.342"></use><use xlink:href="#5" y="8.684"></use></svg><svg x="3660"><use xlink:href="#a"></use><use xlink:href="#3" y="0"></use><use xlink:href="#4" y="4.342"></use><use xlink:href="#5" y="8.684"></use></svg><svg x="3782"><use xlink:href="#a"></use><use xlink:href="#3" y="0"></use><use xlink:href="#4" y="4.342"></use><use xlink:href="#5" y="8.684"></use><use xlink:href="#7" y="10.855"></use></svg><svg x="3904"><use xlink:href="#a"></use><use xlink:href="#3" y="0"></use><use xlink:href="#4" y="4.342"></use><use xlink:href="#5" y="8.684"></use></svg><svg x="4026"><use xlink:href="#a"></use><use xlink:href="#3" y="0"></use><use xlink:href="#4" y="4.342"></use><use xlink:href="#5" y="8.684"></use><use xlink:href="#8" y="10.855"></use></svg><svg x="4148"><use xlink:href="#a"></use><use xlink:href="#3" y="0"></use><use xlink:href="#4" y="4.342"></use><use xlink:href="#5" y="8.684"></use></svg><svg x="4270"><use xlink:href="#a"></use><use xlink:href="#3" y="0"></use><use xlink:href="#4" y="4.342"></use><use xlink:href="#5" y="8.684"></use><use xlink:href="#9" y="10.855"></use></svg><svg x="4392"><use xlink:href="#a"></use><use xlink:href="#3" y="0"></use><use xlink:href="#4" y="4.342"></use><use xlink:href="#5" y="8.684"></use></svg><svg x="4514"><use xlink:href="#a"></use><use xlink:href="#3" y="0"></use><use xlink:href="#4" y="4.342"></use><use xlink:href="#5" y="8.684"></use><use xlink:href="#10" y="10.855"></use></svg><svg x="4636"><use xlink:href="#a"></use><use xlink:href="#3" y="0"></use><use xlink:href="#4" y="4.342"></use><use xlink:href="#5" y="8.684"></use></svg><svg x="4758"><use xlink:href="#a"></use><use xlink:href="#3" y="0"></use><use xlink:href="#4" y="4.342"></use><use xlink:href="#5" y="8.684"></use><use xlink:href="#11" y="10.855"></use></svg><svg x="4880"><use xlink:href="#a"></use><use xlink:href="#3" y="0"></use><use xlink:href="#4" y="4.342"></use><use xlink:href="#5" y="8.684"></use></svg><svg x="5002"><use xlink:href="#a"></use><use xlink:href="#3" y="0"></use><use xlink:href="#4" y="4.342"></use><use xlink:href="#5" y="8.684"></use><use xlink:href="#12" y="10.855"></use></svg><svg x="5124"><use xlink:href="#a"></use><use xlink:href="#3" y="0"></use><use xlink:href="#4" y="4.342"></use><use xlink:href="#5" y="8.684"></use></svg><svg x="5246"><use xlink:href="#a"></use><use xlink:href="#3" y="0"></use><use xlink:href="#4" y="4.342"></use><use xlink:href="#5" y="8.684"></use><use xlink:href="#13" y="10.855"></use></svg><svg x="5368"><use xlink:href="#a"></use><use xlink:href="#3" y="0"></use><use xlink:href="#4" y="4.342"></use><use xlink:href="#5" y="8.684"></use></svg><svg x="5490"><use xlink:href="#a"></use><use xlink:href="#3" y="0"></use><use xlink:href="#4" y="4.342"></use><use xlink:href="#5" y="8.684"></use><use xlink:href="#14" y="10.855"></use></svg><svg x="5612"><use xlink:href="#a"></use><use xlink:href="#3" y="0"></use><use xlink:href="#4" y="4.342"></use><use xlink:href="#5" y="8.684"></use></svg><svg x="5734"><use xlink:href="#a"></use><use xlink:href="#3" y="0"></use><use xlink:href="#4" y="4.342"></use><use xlink:href="#5" y="8.684"></use><use xlink:href="#15" y="10.855"></use></svg><svg x="5856"><use xlink:href="#a"></use><use xlink:href="#3" y="0"></use><use xlink:href="#4" y="4.342"></use><use xlink:href="#5" y="8.684"></use></svg><svg x="5978"><use xlink:href="#a"></use><use xlink:href="#3" y="0"></use><use xlink:href="#4" y="4.342"></use><use xlink:href="#5" y="8.684"></use><use xlink:href="#6" y="10.855"></use></svg><svg x="6100"><use xlink:href="#a"></use><use xlink:href="#3" y="0"></use><use xlink:href="#4" y="4.342"></use><use xlink:href="#5" y="8.684"></use></svg><svg x="6222"><use xlink:href="#a"></use><use xlink:href="#3" y="0"></use><use xlink:href="#4" y="4.342"></use><use xlink:href="#5" y="8.684"></use><use xlink:href="#7" y="10.855"></use></svg><svg x="6344"><use xlink:href="#a"></use><use xlink:href="#3" y="0"></use><use xlink:href="#4" y="4.342"></use><use xlink:href="#5" y="8.684"></use></svg><svg x="6466"><use xlink:href="#a"></use><use xlink:href="#3" y="0"></use><use xlink:href="#4" y="4.342"></use><use xlink:href="#5" y="8.684"></use><use xlink:href="#8" y="10.855"></use></svg><svg x="6588"><use xlink:href="#a"></use><use xlink:href="#3" y="0"></use><use xlink:href="#4" y="4.342"></use><use xlink:href="#5" y="8.684"></use></svg><svg x="6710"><use xlink:href="#a"></use><use xlink:href="#3" y="0"></use><use xlink:href="#4" y="4.342"></use><use xlink:href="#5" y="8.684"></use><use xlink:href="#9" y="10.855"></use></svg><svg x="6832"><use xlink:href="#a"></use><use xlink:href="#3" y="0"></use><use xlink:href="#4" y="4.342"></use><use xlink:href="#5" y="8.684"></use></svg><svg x="6954"><use xlink:href="#a"></use><use xlink:href="#3" y="0"></use><use xlink:href="#4" y="4.342"></use><use xlink:href="#5" y="8.684"></use><use xlink:href="#10" y="10.855"></use></svg><svg x="7076"><use xlink:href="#a"></use><use xlink:href="#3" y="0"></use><use xlink:href="#4" y="4.342"></use><use xlink:href="#5" y="8.684"></use></svg><svg x="7198"><use xlink:href="#a"></use><use xlink:href="#3" y="0"></use><use xlink:href="#4" y="4.342"></use><use xlink:href="#5" y="8.684"></use><use xlink:href="#11" y="10.855"></use></svg><svg x="7320"><use xlink:href="#a"></use><use xlink:href="#3" y="0"></use><use xlink:href="#4" y="4.342"></use><use xlink:href="#5" y="8.684"></use></svg><svg x="7442"><use xlink:href="#a"></use><use xlink:href="#3" y="0"></use><use xlink:href="#4" y="4.342"></use><use xlink:href="#5" y="8.684"></use><use xlink:href="#12" y="10.855"></use></svg><svg x="7564"><use xlink:href="#a"></use><use xlink:href="#3" y="0"></use><use xlink:href="#4" y="4.342"></use><use xlink:href="#5" y="8.684"></use></svg><svg x="7686"><use xlink:href="#a"></use><use xlink:href="#3" y="0"></use><use xlink:href="#4" y="4.342"></use><use xlink:href="#5" y="8.684"></use><use xlink:href="#13" y="10.855"></use></svg><svg x="7808"><use xlink:href="#a"></use><use xlink:href="#3" y="0"></use><use xlink:href="#4" y="4.342"></use><use xlink:href="#5" y="8.684"></use></svg><svg x="7930"><use xlink:href="#a"></use><use xlink:href="#3" y="0"></use><use xlink:href="#4" y="4.342"></use><use xlink:href="#5" y="8.684"></use><use xlink:href="#14" y="10.855"></use></svg><svg x="8052"><use xlink:href="#a"></use><use xlink:href="#3" y="0"></use><use xlink:href="#4" y="4.342"></use><use xlink:href="#5" y="8.684"></use></svg><svg x="8174"><use xlink:href="#a"></use><use xlink:href="#3" y="0"></use><use xlink:href="#4" y="4.342"></use><use xlink:href="#5" y="8.684"></use><use xlink:href="#15" y="10.855"></use></svg><svg x="8296"><use xlink:href="#a"></use><use xlink:href="#3" y="0"></use><use xlink:href="#4" y="4.342"></use><use xlink:href="#5" y="8.684"></use></svg><svg x="8418"><use xlink:href="#a"></use><use xlink:href="#3" y="0"></use><use xlink:href="#4" y="4.342"></use><use xlink:href="#5" y="8.684"></use><use xlink:href="#6" y="10.855"></use></svg><svg x="8540"><use xlink:href="#a"></use><use xlink:href="#3" y="0"></use><use xlink:href="#4" y="4.342"></use><use xlink:href="#5" y="8.684"></use></svg><svg x="8662"><use xlink:href="#a"></use><use xlink:href="#3" y="0"></use><use xlink:href="#4" y="4.342"></use><use xlink:href="#5" y="8.684"></use><use xlink:href="#7" y="10.855"></use></svg><svg x="8784"><use xlink:href="#a"></use><use xlink:href="#3" y="0"></use><use xlink:href="#4" y="4.342"></use><use xlink:href="#5" y="8.684"></use></svg><svg x="8906"><use xlink:href="#a"></use><use xlink:href="#3" y="0"></use><use xlink:href="#4" y="4.342"></use><use xlink:href="#5" y="8.684"></use><use xlink:href="#8" y="10.855"></use></svg><svg x="9028"><use xlink:href="#a"></use><use xlink:href="#3" y="0"></use><use xlink:href="#4" y="4.342"></use><use xlink:href="#5" y="8.684"></use></svg><svg x="9150"><use xlink:href="#a"></use><use xlink:href="#3" y="0"></use><use xlink:href="#4" y="4.342"></use><use xlink:href="#5" y="8.684"></use><use xlink:href="#9" y="10.855"></use></svg><svg x="9272"><use xlink:href="#a"></use><use xlink:href="#3" y="0"></use><use xlink:href="#4" y="4.342"></use><use xlink:href="#5" y="8.684"></use></svg><svg x="9394"><use xlink:href="#a"></use><use xlink:href="#3" y="0"></use><use xlink:href="#4" y="4.342"></use><use xlink:href="#5" y="8.684"></use><use xlink:href="#10" y="10.855"></use></svg><svg x="9516"><use xlink:href="#a"></use><use xlink:href="#3" y="0"></use><use xlink:href="#4" y="4.342"></use><use xlink:href="#5" y="8.684"></use></svg><svg x="9638"><use xlink:href="#a"></use><use xlink:href="#3" y="0"></use><use xlink:href="#4" y="4.342"></use><use xlink:href="#5" y="8.684"></use><use xlink:href="#11" y="10.855"></use></svg><svg x="9760"><use xlink:href="#a"></use><use xlink:href="#3" y="0"></use><use xlink:href="#4" y="4.342"></use><use xlink:href="#5" y="8.684"></use></svg><svg x="9882"><use xlink:href="#a"></use><use xlink:href="#3" y="0"></use><use xlink:href="#4" y="4.342"></use><use xlink:href="#5" y="8.684"></use><use xlink:href="#12" y="10.855"></use></svg><svg x="10004"><use xlink:href="#a"></use><use xlink:href="#3" y="0"></use><use xlink:href="#4" y="4.342"></use><use xlink:href="#5" y="8.684"></use></svg><svg x="10126"><use xlink:href="#a"></use><use xlink:href="#3" y="0"></use><use xlink:href="#4" y="4.342"></use><use xlink:href="#5" y="8.684"></use><use xlink:href="#13" y="10.855"></use></svg><svg x="10248"><use xlink:href="#a"></use><use xlink:href="#3" y="0"></use><use xlink:href="#4" y="4.342"></use><use xlink:href="#5" y="8.684"></use></svg><svg x="10370"><use xlink:href="#a"></use><use xlink:href="#3" y="0"></use><use xlink:href="#4" y="4.342"></use><use xlink:href="#5" y="8.684"></use><use xlink:href="#14" y="10.855"></use></svg><svg x="10492"><use xlink:href="#a"></use><use xlink:href="#b" x="-0.0040000000000000036" y="13.001"></use><use xlink:href="#3" y="0"></use><use xlink:href="#4" y="4.342"></use><use xlink:href="#5" y="8.684"></use><use xlink:href="#16" y="10.855"></use></svg><svg x="10614"><use xlink:href="#a"></use><use xlink:href="#b" x="-0.0040000000000000036" y="34.711"></use><use xlink:href="#3" y="0"></use><use xlink:href="#4" y="4.342"></use><use xlink:href="#5" y="8.684"></use><use xlink:href="#16" y="10.855"></use><use xlink:href="#17" y="15.197"></use><use xlink:href="#18" y="19.539"></use><use xlink:href="#19" y="21.71"></use><use xlink:href="#20" y="23.880999999999997"></use><use xlink:href="#21" y="26.052"></use><use xlink:href="#22" y="30.394"></use></svg><svg x="10736"><use xlink:href="#a"></use><use xlink:href="#b" x="-0.0040000000000000036" y="54.25"></use><use xlink:href="#3" y="0"></use><use xlink:href="#4" y="4.342"></use><use xlink:href="#5" y="8.684"></use><use xlink:href="#16" y="10.855"></use><use xlink:href="#17" y="15.197"></use><use xlink:href="#18" y="19.539"></use><use xlink:href="#19" y="21.71"></use><use xlink:href="#20" y="23.880999999999997"></use><use xlink:href="#21" y="26.052"></use><use xlink:href="#22" y="30.394"></use><use xlink:href="#23" y="36.907000000000004"></use><use xlink:href="#24" y="41.248999999999995"></use><use xlink:href="#25" y="43.42"></use><use xlink:href="#26" y="45.591"></use><use xlink:href="#27" y="47.76199999999999"></use></svg><svg x="10858"><use xlink:href="#a"></use><use xlink:href="#b" x="-0.0040000000000000036" y="54.25"></use><use xlink:href="#3" y="0"></use><use xlink:href="#4" y="4.342"></use><use xlink:href="#5" y="8.684"></use><use xlink:href="#16" y="10.855"></use><use xlink:href="#17" y="15.197"></use><use xlink:href="#18" y="19.539"></use><use xlink:href="#19" y="21.71"></use><use xlink:href="#20" y="23.880999999999997"></use><use xlink:href="#21" y="26.052"></use><use xlink:href="#22" y="30.394"></use><use xlink:href="#23" y="36.907000000000004"></use><use xlink:href="#24" y="41.248999999999995"></use><use xlink:href="#25" y="43.42"></use><use xlink:href="#26" y="45.591"></use><use xlink:href="#27" y="47.76199999999999"></use></svg><svg x="10980"><use xlink:href="#a"></use><use xlink:href="#b" x="-0.0040000000000000036" y="54.25"></use><use xlink:href="#3" y="0"></use><use xlink:href="#4" y="4.342"></use><use xlink:href="#5" y="8.684"></use><use xlink:href="#16" y="10.855"></use><use xlink:href="#17" y="15.197"></use><use xlink:href="#18" y="19.539"></use><use xlink:href="#19" y="21.71"></use><use xlink:href="#20" y="23.880999999999997"></use><use xlink:href="#21" y="26.052"></use><use xlink:href="#22" y="30.394"></use><use xlink:href="#23" y="36.907000000000004"></use><use xlink:href="#24" y="41.248999999999995"></use><use xlink:href="#25" y="43.42"></use><use xlink:href="#26" y="45.591"></use><use xlink:href="#27" y="47.76199999999999"></use></svg><svg x="11102"><use xlink:href="#a"></use><use xlink:href="#b" x="-0.0040000000000000036" y="54.25"></use><use xlink:href="#3" y="0"></use><use xlink:href="#4" y="4.342"></use><use xlink:href="#5" y="8.684"></use><use xlink:href="#16" y="10.855"></use><use xlink:href="#17" y="15.197"></use><use xlink:href="#18" y="19.539"></use><use xlink:href="#19" y="21.71"></use><use xlink:href="#20" y="23.880999999999997"></use><use xlink:href="#21" y="26.052"></use><use xlink:href="#22" y="30.394"></use><use xlink:href="#23" y="36.907000000000004"></use><use xlink:href="#24" y="41.248999999999995"></use><use xlink:href="#25" y="43.42"></use><use xlink:href="#26" y="45.591"></use><use xlink:href="#27" y="47.76199999999999"></use></svg><svg x="11224"><use xlink:href="#a"></use><use xlink:href="#b" x="7.996" y="54.25"></use><use xlink:href="#3" y="0"></use><use xlink:href="#4" y="4.342"></use><use xlink:href="#5" y="8.684"></use><use xlink:href="#16" y="10.855"></use><use xlink:href="#17" y="15.197"></use><use xlink:href="#18" y="19.539"></use><use xlink:href="#19" y="21.71"></use><use xlink:href="#20" y="23.880999999999997"></use><use xlink:href="#21" y="26.052"></use><use xlink:href="#22" y="30.394"></use><use xlink:href="#23" y="36.907000000000004"></use><use xlink:href="#24" y="41.248999999999995"></use><use xlink:href="#25" y="43.42"></use><use xlink:href="#26" y="45.591"></use><use xlink:href="#27" y="47.76199999999999"></use><use xlink:href="#28" y="54.275"></use></svg><svg x="11346"><use xlink:href="#a"></use><use xlink:href="#b" x="7.996" y="54.25"></use><use xlink:href="#3" y="0"></use><use xlink:href="#4" y="4.342"></use><use xlink:href="#5" y="8.684"></use><use xlink:href="#16" y="10.855"></use><use xlink:href="#17" y="15.197"></use><use xlink:href="#18" y="19.539"></use><use xlink:href="#19" y="21.71"></use><use xlink:href="#20" y="23.880999999999997"></use><use xlink:href="#21" y="26.052"></use><use xlink:href="#22" y="30.394"></use><use xlink:href="#23" y="36.907000000000004"></use><use xlink:href="#24" y="41.248999999999995"></use><use xlink:href="#25" y="43.42"></use><use xlink:href="#26" y="45.591"></use><use xlink:href="#27" y="47.76199999999999"></use><use xlink:href="#28" y="54.275"></use></svg><svg x="11468"><use xlink:href="#a"></use><use xlink:href="#b" x="7.996" y="54.25"></use><use xlink:href="#3" y="0"></use><use xlink:href="#4" y="4.342"></use><use xlink:href="#5" y="8.684"></use><use xlink:href="#16" y="10.855"></use><use xlink:href="#17" y="15.197"></use><use xlink:href="#18" y="19.539"></use><use xlink:href="#19" y="21.71"></use><use xlink:href="#20" y="23.880999999999997"></use><use xlink:href="#21" y="26.052"></use><use xlink:href="#22" y="30.394"></use><use xlink:href="#23" y="36.907000000000004"></use><use xlink:href="#24" y="41.248999999999995"></use><use xlink:href="#25" y="43.42"></use><use xlink:href="#26" y="45.591"></use><use xlink:href="#27" y="47.76199999999999"></use><use xlink:href="#28" y="54.275"></use></svg><svg x="11590"><use xlink:href="#a"></use><use xlink:href="#b" x="-0.0040000000000000036" y="56.42100000000001"></use><use xlink:href="#3" y="0"></use><use xlink:href="#4" y="4.342"></use><use xlink:href="#5" y="8.684"></use><use xlink:href="#16" y="10.855"></use><use xlink:href="#17" y="15.197"></use><use xlink:href="#18" y="19.539"></use><use xlink:href="#19" y="21.71"></use><use xlink:href="#20" y="23.880999999999997"></use><use xlink:href="#21" y="26.052"></use><use xlink:href="#22" y="30.394"></use><use xlink:href="#23" y="36.907000000000004"></use><use xlink:href="#24" y="41.248999999999995"></use><use xlink:href="#25" y="43.42"></use><use xlink:href="#26" y="45.591"></use><use xlink:href="#27" y="47.76199999999999"></use><use xlink:href="#28" y="54.275"></use></svg></svg></g></g></svg></svg>