<svg xmlns="http://www.w3.org/2000/svg" width="310" height="310"><path fill="#d85151" d="M154.994 0l-25.063 46.753c-2.844 5.081-7.94 4.61-13.035 1.772L98.75 39.127l13.524 71.812c2.844 13.12-6.28 13.12-10.784 7.447L69.823 82.93l-5.141 18.005c-.593 2.365-3.2 4.848-7.11 4.257l-40.044-8.42 10.518 38.243c2.251 8.51 4.008 12.033-2.273 14.277L11.5 156l68.932 56c2.729 2.117 4.107 5.928 3.136 9.378l-6.033 19.8c23.734-2.735 45-6.852 68.747-9.387 2.096-.224 5.606 3.236 5.592 5.666L148.729 310h11.54l-1.817-72.388c-.014-2.43 3.17-6.045 5.266-5.821 23.746 2.535 45.013 6.652 68.747 9.388l-6.033-19.801c-.971-3.45.407-7.26 3.136-9.378l68.932-56-14.273-6.708c-6.28-2.244-4.524-5.768-2.273-14.277l10.518-38.244-40.044 8.42c-3.91.592-6.517-1.891-7.11-4.256l-5.141-18.005-31.667 35.456c-4.503 5.672-13.628 5.672-10.784-7.447l13.524-71.812-18.146 9.398c-5.095 2.838-10.19 3.31-13.035-1.772"/></svg>