<svg xmlns="http://www.w3.org/2000/svg" xmlns:xlink="http://www.w3.org/1999/xlink" width="1260" height="667.88"><rect width="1260" height="667.88" rx="5" ry="5" class="a"/><svg y="0%" x="0%"><circle cx="20" cy="20" r="6" fill="#ff5f58"/><circle cx="40" cy="20" r="6" fill="#ffbd2e"/><circle cx="60" cy="20" r="6" fill="#18c132"/></svg><svg height="607.88" viewBox="0 0 122 60.788" width="1220" x="15" xmlns="http://www.w3.org/2000/svg" xmlns:xlink="http://www.w3.org/1999/xlink" y="50"><style>@keyframes r{0%{transform:translateX(0)}5.1%{transform:translateX(-122px)}5.17%{transform:translateX(-488px)}7.88%{transform:translateX(-610px)}8.98%{transform:translateX(-732px)}10.22%{transform:translateX(-854px)}10.95%{transform:translateX(-976px)}11.39%{transform:translateX(-1098px)}12.37%{transform:translateX(-1220px)}12.55%{transform:translateX(-1342px)}13.24%{transform:translateX(-1464px)}14.03%{transform:translateX(-1586px)}14.85%{transform:translateX(-1708px)}16.84%{transform:translateX(-1830px)}17.31%{transform:translateX(-1952px)}17.84%{transform:translateX(-2074px)}18.9%{transform:translateX(-2196px)}19.36%{transform:translateX(-2318px)}20.18%{transform:translateX(-2440px)}21.02%{transform:translateX(-2562px)}21.78%{transform:translateX(-2928px)}26.31%{transform:translateX(-3050px)}26.32%{transform:translateX(-3538px)}26.72%{transform:translateX(-3904px)}27.11%{transform:translateX(-4148px)}27.49%{transform:translateX(-4270px)}27.5%{transform:translateX(-4392px)}27.89%{transform:translateX(-4636px)}28.28%{transform:translateX(-4880px)}28.67%{transform:translateX(-5124px)}29.06%{transform:translateX(-5368px)}29.46%{transform:translateX(-5734px)}29.85%{transform:translateX(-5978px)}30.23%{transform:translateX(-6222px)}31.16%{transform:translateX(-6466px)}31.55%{transform:translateX(-6710px)}32%{transform:translateX(-6832px)}32.4%{transform:translateX(-6954px)}32.41%{transform:translateX(-7076px)}32.79%{transform:translateX(-7320px)}33.17%{transform:translateX(-7564px)}33.87%{transform:translateX(-7808px)}34.26%{transform:translateX(-8052px)}35.61%{transform:translateX(-8296px)}36.01%{transform:translateX(-8418px)}36.02%{transform:translateX(-8540px)}36.42%{transform:translateX(-8784px)}36.81%{transform:translateX(-9028px)}39.57%{transform:translateX(-9150px)}39.59%{transform:translateX(-9394px)}39.8%{transform:translateX(-9516px)}39.87%{transform:translateX(-9760px)}39.96%{transform:translateX(-10004px)}}.a{fill:#282d35}.f,.g{fill:#a8cc8c;font-weight:700}.g{fill:#66c2cd}.h{fill:#b9c0cb}.i{fill:#a8cc8c}.j{fill:#66c2cd}.k{fill:#71bef2}.l{fill:#b9c0cb;text-decoration:underline}.m{fill:#e88388}.n{fill:#b9bfca}.o{fill:#e88388;font-weight:700}</style><g font-size="1.67" font-family="Monaco,Consolas,Menlo,'Bitstream Vera Sans Mono','Powerline Symbols',monospace"><defs><symbol id="1"><text y="1.67" class="f">➜</text><text x="3.006" y="1.67" class="g">demo</text></symbol><symbol id="2"><text y="1.67" class="f">➜</text><text x="3.006" y="1.67" class="g">demo</text><text x="8.016" y="1.67" class="h">adviser</text></symbol><symbol id="3"><text y="1.67" class="f">➜</text><text x="3.006" y="1.67" class="g">demo</text><text x="8.016" y="1.67" class="h">adviser</text><text x="16.032" y="1.67" class="h">--verbose</text></symbol><symbol id="4"><text y="1.67" class="h">Adviser</text><text x="8.016" y="1.67" class="h">v0.5.1</text></symbol><symbol id="5"><text y="1.67" class="i">✔</text><text x="2.004" y="1.67" class="h">Rules</text><text x="8.016" y="1.67" class="h">loaded</text></symbol><symbol id="6"><text y="1.67" class="j">⠋</text><text x="2.004" y="1.67" class="h">The</text><text x="6.012" y="1.67" class="h">engine</text><text x="13.026" y="1.67" class="h">is</text><text x="16.032" y="1.67" class="h">executing</text><text x="26.052" y="1.67" class="h">the</text><text x="30.06" y="1.67" class="h">rules</text></symbol><symbol id="7"><text y="1.67" class="j">⠙</text><text x="2.004" y="1.67" class="h">The</text><text x="6.012" y="1.67" class="h">engine</text><text x="13.026" y="1.67" class="h">is</text><text x="16.032" y="1.67" class="h">executing</text><text x="26.052" y="1.67" class="h">the</text><text x="30.06" y="1.67" class="h">rules</text></symbol><symbol id="8"><text y="1.67" class="j">⠹</text><text x="2.004" y="1.67" class="h">The</text><text x="6.012" y="1.67" class="h">engine</text><text x="13.026" y="1.67" class="h">is</text><text x="16.032" y="1.67" class="h">executing</text><text x="26.052" y="1.67" class="h">the</text><text x="30.06" y="1.67" class="h">rules</text></symbol><symbol id="9"><text y="1.67" class="j">⠸</text><text x="2.004" y="1.67" class="h">The</text><text x="6.012" y="1.67" class="h">engine</text><text x="13.026" y="1.67" class="h">is</text><text x="16.032" y="1.67" class="h">executing</text><text x="26.052" y="1.67" class="h">the</text><text x="30.06" y="1.67" class="h">rules</text></symbol><symbol id="10"><text y="1.67" class="j">⠼</text><text x="2.004" y="1.67" class="h">The</text><text x="6.012" y="1.67" class="h">engine</text><text x="13.026" y="1.67" class="h">is</text><text x="16.032" y="1.67" class="h">executing</text><text x="26.052" y="1.67" class="h">the</text><text x="30.06" y="1.67" class="h">rules</text></symbol><symbol id="11"><text y="1.67" class="j">⠴</text><text x="2.004" y="1.67" class="h">The</text><text x="6.012" y="1.67" class="h">engine</text><text x="13.026" y="1.67" class="h">is</text><text x="16.032" y="1.67" class="h">executing</text><text x="26.052" y="1.67" class="h">the</text><text x="30.06" y="1.67" class="h">rules</text></symbol><symbol id="12"><text y="1.67" class="j">⠦</text><text x="2.004" y="1.67" class="h">The</text><text x="6.012" y="1.67" class="h">engine</text><text x="13.026" y="1.67" class="h">is</text><text x="16.032" y="1.67" class="h">executing</text><text x="26.052" y="1.67" class="h">the</text><text x="30.06" y="1.67" class="h">rules</text></symbol><symbol id="13"><text y="1.67" class="j">⠧</text><text x="2.004" y="1.67" class="h">The</text><text x="6.012" y="1.67" class="h">engine</text><text x="13.026" y="1.67" class="h">is</text><text x="16.032" y="1.67" class="h">executing</text><text x="26.052" y="1.67" class="h">the</text><text x="30.06" y="1.67" class="h">rules</text></symbol><symbol id="14"><text y="1.67" class="j">⠇</text><text x="2.004" y="1.67" class="h">The</text><text x="6.012" y="1.67" class="h">engine</text><text x="13.026" y="1.67" class="h">is</text><text x="16.032" y="1.67" class="h">executing</text><text x="26.052" y="1.67" class="h">the</text><text x="30.06" y="1.67" class="h">rules</text></symbol><symbol id="15"><text y="1.67" class="j">⠏</text><text x="2.004" y="1.67" class="h">The</text><text x="6.012" y="1.67" class="h">engine</text><text x="13.026" y="1.67" class="h">is</text><text x="16.032" y="1.67" class="h">executing</text><text x="26.052" y="1.67" class="h">the</text><text x="30.06" y="1.67" class="h">rules</text></symbol><symbol id="16"><text y="1.67" class="i">✔</text><text x="2.004" y="1.67" class="h">Rules</text><text x="8.016" y="1.67" class="h">executed</text></symbol><symbol id="17"><text x="2.004" y="1.67" class="k">Output</text></symbol><symbol id="18"><text x="2.004" y="1.67" class="h">Plugin:</text><text x="10.02" y="1.67" class="l">adviser</text></symbol><symbol id="19"><text x="2.004" y="1.67" class="m">error</text><text x="9.018" y="1.67" class="h">The</text><text x="13.026" y="1.67" class="h">package.json</text><text x="26.052" y="1.67" class="h">is</text><text x="29.058" y="1.67" class="h">missing</text><text x="37.074" y="1.67" class="h">the</text><text x="41.082" y="1.67" class="h">required</text><text x="50.1" y="1.67" class="h">property:</text><text x="60.12" y="1.67" class="h">private</text><text x="79.158" y="1.67" class="h">package-json-properties</text><path class="m" d="M104.208 0h10v2.171h-10z"/><text x="104.208" y="1.67" class="n">5.986555ms</text></symbol><symbol id="20"><text x="2.004" y="1.67" class="m">error</text><text x="9.018" y="1.67" class="h">The</text><text x="13.026" y="1.67" class="h">package.json</text><text x="26.052" y="1.67" class="h">includes</text><text x="35.07" y="1.67" class="h">the</text><text x="39.078" y="1.67" class="h">restricted</text><text x="50.1" y="1.67" class="h">properties:</text><text x="62.124" y="1.67" class="h">license,</text><text x="71.142" y="1.67" class="h">author</text><text x="79.158" y="1.67" class="h">package-json-properties</text><path class="m" d="M104.208 0h10v2.171h-10z"/><text x="104.208" y="1.67" class="n">5.986555ms</text></symbol><symbol id="21"><text x="2.004" y="1.67" class="m">error</text><text x="9.018" y="1.67" class="h">Your</text><text x="14.028" y="1.67" class="h">directory</text><text x="24.048" y="1.67" class="h">root</text><text x="29.058" y="1.67" class="h">is</text><text x="32.064" y="1.67" class="h">missing</text><text x="40.08" y="1.67" class="h">the</text><text x="44.088" y="1.67" class="h">required</text><text x="53.106" y="1.67" class="h">files:</text><text x="60.12" y="1.67" class="h">.eslintrc,</text><text x="71.142" y="1.67" class="h">README</text><text x="79.158" y="1.67" class="h">root-files</text><path class="m" d="M104.208 0h12v2.171h-12z"/><text x="104.208" y="1.67" class="n">953.475094ms</text></symbol><symbol id="22"><text x="2.004" y="1.67" class="o">✖</text><text x="4.008" y="1.67" class="o">3</text><text x="6.012" y="1.67" class="o">problems</text><text x="15.03" y="1.67" class="o">(3</text><text x="18.036" y="1.67" class="o">errors,</text><text x="26.052" y="1.67" class="o">0</text><text x="28.056" y="1.67" class="o">warnings)</text></symbol><symbol id="23"><text x="2.004" y="1.67" class="k">Adviser</text><text x="10.02" y="1.67" class="k">Summary</text></symbol><symbol id="24"><text x="2.004" y="1.67" class="l">Plugin</text><text x="16.032" y="1.67" class="l">Rule</text><text x="41.082" y="1.67" class="l">Status</text></symbol><symbol id="25"><text x="2.004" y="1.67" class="h">adviser</text><text x="16.032" y="1.67" class="h">package-json-properties</text><text x="41.082" y="1.67" class="i">completed</text></symbol><symbol id="26"><text x="2.004" y="1.67" class="h">adviser</text><text x="16.032" y="1.67" class="h">root-files</text><text x="41.082" y="1.67" class="i">completed</text></symbol><symbol id="27"><text x="2.004" y="1.67" class="h">dependencies</text><text x="16.032" y="1.67" class="h">package-size</text><text x="41.082" y="1.67" class="i">completed</text></symbol><symbol id="28"><text y="1.67" class="o">➜</text><text x="3.006" y="1.67" class="g">demo</text></symbol><symbol id="a"><path fill="transparent" d="M0 0h122v28H0z"/></symbol><symbol id="b"><path fill="#6f7683" d="M0 0h1.102v2.171H0z"/></symbol></defs><path class="a" d="M0 0h122v60.788H0z"/><svg width="10248"><svg><use xlink:href="#a"/><use xlink:href="#b" x="-.004"/></svg><svg x="122"><use xlink:href="#a"/><use xlink:href="#b" x="-.004"/></svg><svg x="244"><use xlink:href="#a"/><use xlink:href="#b" x="7.996"/><use xlink:href="#1"/></svg><svg x="366"><use xlink:href="#a"/><use xlink:href="#b" x="7.996"/><use xlink:href="#1"/></svg><svg x="488"><use xlink:href="#a"/><use xlink:href="#b" x="7.996"/><use xlink:href="#1"/></svg><svg x="610"><use xlink:href="#a"/><use xlink:href="#b" x="8.996"/><text y="1.67" class="f">➜</text><text x="3.006" y="1.67" class="g">demo</text><text x="8.016" y="1.67" class="h">a</text></svg><svg x="732"><use xlink:href="#a"/><use xlink:href="#b" x="9.996"/><text y="1.67" class="f">➜</text><text x="3.006" y="1.67" class="g">demo</text><text x="8.016" y="1.67" class="h">ad</text></svg><svg x="854"><use xlink:href="#a"/><use xlink:href="#b" x="10.996"/><text y="1.67" class="f">➜</text><text x="3.006" y="1.67" class="g">demo</text><text x="8.016" y="1.67" class="h">adv</text></svg><svg x="976"><use xlink:href="#a"/><use xlink:href="#b" x="11.996"/><text y="1.67" class="f">➜</text><text x="3.006" y="1.67" class="g">demo</text><text x="8.016" y="1.67" class="h">advi</text></svg><svg x="1098"><use xlink:href="#a"/><use xlink:href="#b" x="12.996"/><text y="1.67" class="f">➜</text><text x="3.006" y="1.67" class="g">demo</text><text x="8.016" y="1.67" class="h">advis</text></svg><svg x="1220"><use xlink:href="#a"/><use xlink:href="#b" x="13.996"/><text y="1.67" class="f">➜</text><text x="3.006" y="1.67" class="g">demo</text><text x="8.016" y="1.67" class="h">advise</text></svg><svg x="1342"><use xlink:href="#a"/><use xlink:href="#b" x="14.996"/><use xlink:href="#2"/></svg><svg x="1464"><use xlink:href="#a"/><use xlink:href="#b" x="15.996"/><use xlink:href="#2"/></svg><svg x="1586"><use xlink:href="#a"/><use xlink:href="#b" x="16.996"/><text y="1.67" class="f">➜</text><text x="3.006" y="1.67" class="g">demo</text><text x="8.016" y="1.67" class="h">adviser</text><text x="16.032" y="1.67" class="h">-</text></svg><svg x="1708"><use xlink:href="#a"/><use xlink:href="#b" x="17.996"/><text y="1.67" class="f">➜</text><text x="3.006" y="1.67" class="g">demo</text><text x="8.016" y="1.67" class="h">adviser</text><text x="16.032" y="1.67" class="h">--</text></svg><svg x="1830"><use xlink:href="#a"/><use xlink:href="#b" x="18.996"/><text y="1.67" class="f">➜</text><text x="3.006" y="1.67" class="g">demo</text><text x="8.016" y="1.67" class="h">adviser</text><text x="16.032" y="1.67" class="h">--v</text></svg><svg x="1952"><use xlink:href="#a"/><use xlink:href="#b" x="19.996"/><text y="1.67" class="f">➜</text><text x="3.006" y="1.67" class="g">demo</text><text x="8.016" y="1.67" class="h">adviser</text><text x="16.032" y="1.67" class="h">--ve</text></svg><svg x="2074"><use xlink:href="#a"/><use xlink:href="#b" x="20.996"/><text y="1.67" class="f">➜</text><text x="3.006" y="1.67" class="g">demo</text><text x="8.016" y="1.67" class="h">adviser</text><text x="16.032" y="1.67" class="h">--ver</text></svg><svg x="2196"><use xlink:href="#a"/><use xlink:href="#b" x="21.996"/><text y="1.67" class="f">➜</text><text x="3.006" y="1.67" class="g">demo</text><text x="8.016" y="1.67" class="h">adviser</text><text x="16.032" y="1.67" class="h">--verb</text></svg><svg x="2318"><use xlink:href="#a"/><use xlink:href="#b" x="22.996"/><text y="1.67" class="f">➜</text><text x="3.006" y="1.67" class="g">demo</text><text x="8.016" y="1.67" class="h">adviser</text><text x="16.032" y="1.67" class="h">--verbo</text></svg><svg x="2440"><use xlink:href="#a"/><use xlink:href="#b" x="23.996"/><text y="1.67" class="f">➜</text><text x="3.006" y="1.67" class="g">demo</text><text x="8.016" y="1.67" class="h">adviser</text><text x="16.032" y="1.67" class="h">--verbos</text></svg><svg x="2562"><use xlink:href="#a"/><use xlink:href="#b" x="24.996"/><use xlink:href="#3"/></svg><svg x="2684"><use xlink:href="#a"/><use xlink:href="#b" x="24.996"/><use xlink:href="#3"/></svg><svg x="2806"><use xlink:href="#a"/><use xlink:href="#b" x="-.004" y="2.146"/><use xlink:href="#3"/></svg><svg x="2928"><use xlink:href="#a"/><use xlink:href="#b" x="-.004" y="2.146"/><use xlink:href="#3"/></svg><svg x="3050"><use xlink:href="#a"/><use xlink:href="#b" x="-.004" y="8.659"/><use xlink:href="#3"/><use xlink:href="#4" y="4.342"/></svg><svg x="3172"><use xlink:href="#a"/><use xlink:href="#b" x="-.004" y="8.659"/><use xlink:href="#3"/><use xlink:href="#4" y="4.342"/></svg><svg x="3294"><use xlink:href="#a"/><use xlink:href="#b" x="-.004" y="10.83"/><use xlink:href="#3"/><use xlink:href="#4" y="4.342"/><use xlink:href="#5" y="8.684"/></svg><svg x="3416"><use xlink:href="#a"/><use xlink:href="#3"/><use xlink:href="#4" y="4.342"/><use xlink:href="#5" y="8.684"/></svg><svg x="3538"><use xlink:href="#a"/><use xlink:href="#3"/><use xlink:href="#4" y="4.342"/><use xlink:href="#5" y="8.684"/><use xlink:href="#6" y="10.855"/></svg><svg x="3660"><use xlink:href="#a"/><use xlink:href="#3"/><use xlink:href="#4" y="4.342"/><use xlink:href="#5" y="8.684"/></svg><svg x="3782"><use xlink:href="#a"/><use xlink:href="#3"/><use xlink:href="#4" y="4.342"/><use xlink:href="#5" y="8.684"/></svg><svg x="3904"><use xlink:href="#a"/><use xlink:href="#3"/><use xlink:href="#4" y="4.342"/><use xlink:href="#5" y="8.684"/><use xlink:href="#7" y="10.855"/></svg><svg x="4026"><use xlink:href="#a"/><use xlink:href="#3"/><use xlink:href="#4" y="4.342"/><use xlink:href="#5" y="8.684"/></svg><svg x="4148"><use xlink:href="#a"/><use xlink:href="#3"/><use xlink:href="#4" y="4.342"/><use xlink:href="#5" y="8.684"/><use xlink:href="#8" y="10.855"/></svg><svg x="4270"><use xlink:href="#a"/><use xlink:href="#3"/><use xlink:href="#4" y="4.342"/><use xlink:href="#5" y="8.684"/></svg><svg x="4392"><use xlink:href="#a"/><use xlink:href="#3"/><use xlink:href="#4" y="4.342"/><use xlink:href="#5" y="8.684"/><use xlink:href="#9" y="10.855"/></svg><svg x="4514"><use xlink:href="#a"/><use xlink:href="#3"/><use xlink:href="#4" y="4.342"/><use xlink:href="#5" y="8.684"/></svg><svg x="4636"><use xlink:href="#a"/><use xlink:href="#3"/><use xlink:href="#4" y="4.342"/><use xlink:href="#5" y="8.684"/><use xlink:href="#10" y="10.855"/></svg><svg x="4758"><use xlink:href="#a"/><use xlink:href="#3"/><use xlink:href="#4" y="4.342"/><use xlink:href="#5" y="8.684"/></svg><svg x="4880"><use xlink:href="#a"/><use xlink:href="#3"/><use xlink:href="#4" y="4.342"/><use xlink:href="#5" y="8.684"/><use xlink:href="#11" y="10.855"/></svg><svg x="5002"><use xlink:href="#a"/><use xlink:href="#3"/><use xlink:href="#4" y="4.342"/><use xlink:href="#5" y="8.684"/></svg><svg x="5124"><use xlink:href="#a"/><use xlink:href="#3"/><use xlink:href="#4" y="4.342"/><use xlink:href="#5" y="8.684"/><use xlink:href="#12" y="10.855"/></svg><svg x="5246"><use xlink:href="#a"/><use xlink:href="#3"/><use xlink:href="#4" y="4.342"/><use xlink:href="#5" y="8.684"/></svg><svg x="5368"><use xlink:href="#a"/><use xlink:href="#3"/><use xlink:href="#4" y="4.342"/><use xlink:href="#5" y="8.684"/><use xlink:href="#13" y="10.855"/></svg><svg x="5490"><use xlink:href="#a"/><use xlink:href="#3"/><use xlink:href="#4" y="4.342"/><use xlink:href="#5" y="8.684"/></svg><svg x="5612"><use xlink:href="#a"/><use xlink:href="#3"/><use xlink:href="#4" y="4.342"/><use xlink:href="#5" y="8.684"/></svg><svg x="5734"><use xlink:href="#a"/><use xlink:href="#3"/><use xlink:href="#4" y="4.342"/><use xlink:href="#5" y="8.684"/><use xlink:href="#14" y="10.855"/></svg><svg x="5856"><use xlink:href="#a"/><use xlink:href="#3"/><use xlink:href="#4" y="4.342"/><use xlink:href="#5" y="8.684"/></svg><svg x="5978"><use xlink:href="#a"/><use xlink:href="#3"/><use xlink:href="#4" y="4.342"/><use xlink:href="#5" y="8.684"/><use xlink:href="#15" y="10.855"/></svg><svg x="6100"><use xlink:href="#a"/><use xlink:href="#3"/><use xlink:href="#4" y="4.342"/><use xlink:href="#5" y="8.684"/></svg><svg x="6222"><use xlink:href="#a"/><use xlink:href="#3"/><use xlink:href="#4" y="4.342"/><use xlink:href="#5" y="8.684"/><use xlink:href="#6" y="10.855"/></svg><svg x="6344"><use xlink:href="#a"/><use xlink:href="#3"/><use xlink:href="#4" y="4.342"/><use xlink:href="#5" y="8.684"/></svg><svg x="6466"><use xlink:href="#a"/><use xlink:href="#3"/><use xlink:href="#4" y="4.342"/><use xlink:href="#5" y="8.684"/><use xlink:href="#7" y="10.855"/></svg><svg x="6588"><use xlink:href="#a"/><use xlink:href="#3"/><use xlink:href="#4" y="4.342"/><use xlink:href="#5" y="8.684"/></svg><svg x="6710"><use xlink:href="#a"/><use xlink:href="#3"/><use xlink:href="#4" y="4.342"/><use xlink:href="#5" y="8.684"/><use xlink:href="#8" y="10.855"/></svg><svg x="6832"><use xlink:href="#a"/><use xlink:href="#3"/><use xlink:href="#4" y="4.342"/><use xlink:href="#5" y="8.684"/><use xlink:href="#9" y="10.855"/></svg><svg x="6954"><use xlink:href="#a"/><use xlink:href="#3"/><use xlink:href="#4" y="4.342"/><use xlink:href="#5" y="8.684"/></svg><svg x="7076"><use xlink:href="#a"/><use xlink:href="#3"/><use xlink:href="#4" y="4.342"/><use xlink:href="#5" y="8.684"/><use xlink:href="#10" y="10.855"/></svg><svg x="7198"><use xlink:href="#a"/><use xlink:href="#3"/><use xlink:href="#4" y="4.342"/><use xlink:href="#5" y="8.684"/></svg><svg x="7320"><use xlink:href="#a"/><use xlink:href="#3"/><use xlink:href="#4" y="4.342"/><use xlink:href="#5" y="8.684"/><use xlink:href="#11" y="10.855"/></svg><svg x="7442"><use xlink:href="#a"/><use xlink:href="#3"/><use xlink:href="#4" y="4.342"/><use xlink:href="#5" y="8.684"/></svg><svg x="7564"><use xlink:href="#a"/><use xlink:href="#3"/><use xlink:href="#4" y="4.342"/><use xlink:href="#5" y="8.684"/><use xlink:href="#12" y="10.855"/></svg><svg x="7686"><use xlink:href="#a"/><use xlink:href="#3"/><use xlink:href="#4" y="4.342"/><use xlink:href="#5" y="8.684"/></svg><svg x="7808"><use xlink:href="#a"/><use xlink:href="#3"/><use xlink:href="#4" y="4.342"/><use xlink:href="#5" y="8.684"/><use xlink:href="#13" y="10.855"/></svg><svg x="7930"><use xlink:href="#a"/><use xlink:href="#3"/><use xlink:href="#4" y="4.342"/><use xlink:href="#5" y="8.684"/></svg><svg x="8052"><use xlink:href="#a"/><use xlink:href="#3"/><use xlink:href="#4" y="4.342"/><use xlink:href="#5" y="8.684"/><use xlink:href="#14" y="10.855"/></svg><svg x="8174"><use xlink:href="#a"/><use xlink:href="#3"/><use xlink:href="#4" y="4.342"/><use xlink:href="#5" y="8.684"/></svg><svg x="8296"><use xlink:href="#a"/><use xlink:href="#3"/><use xlink:href="#4" y="4.342"/><use xlink:href="#5" y="8.684"/><use xlink:href="#15" y="10.855"/></svg><svg x="8418"><use xlink:href="#a"/><use xlink:href="#3"/><use xlink:href="#4" y="4.342"/><use xlink:href="#5" y="8.684"/></svg><svg x="8540"><use xlink:href="#a"/><use xlink:href="#3"/><use xlink:href="#4" y="4.342"/><use xlink:href="#5" y="8.684"/><use xlink:href="#6" y="10.855"/></svg><svg x="8662"><use xlink:href="#a"/><use xlink:href="#3"/><use xlink:href="#4" y="4.342"/><use xlink:href="#5" y="8.684"/></svg><svg x="8784"><use xlink:href="#a"/><use xlink:href="#3"/><use xlink:href="#4" y="4.342"/><use xlink:href="#5" y="8.684"/><use xlink:href="#7" y="10.855"/></svg><svg x="8906"><use xlink:href="#a"/><use xlink:href="#3"/><use xlink:href="#4" y="4.342"/><use xlink:href="#5" y="8.684"/></svg><svg x="9028"><use xlink:href="#a"/><use xlink:href="#3"/><use xlink:href="#4" y="4.342"/><use xlink:href="#5" y="8.684"/><use xlink:href="#8" y="10.855"/></svg><svg x="9150"><use xlink:href="#a"/><use xlink:href="#b" x="-.004" y="13.001"/><use xlink:href="#3"/><use xlink:href="#4" y="4.342"/><use xlink:href="#5" y="8.684"/><use xlink:href="#16" y="10.855"/></svg><svg x="9272"><use xlink:href="#a"/><use xlink:href="#b" x="-.004" y="34.711"/><use xlink:href="#3"/><use xlink:href="#4" y="4.342"/><use xlink:href="#5" y="8.684"/><use xlink:href="#16" y="10.855"/><use xlink:href="#17" y="15.197"/><use xlink:href="#18" y="19.539"/><use xlink:href="#19" y="21.71"/><use xlink:href="#20" y="23.881"/><use xlink:href="#21" y="26.052"/><use xlink:href="#22" y="30.394"/></svg><svg x="9394"><use xlink:href="#a"/><use xlink:href="#b" x="-.004" y="54.25"/><use xlink:href="#3"/><use xlink:href="#4" y="4.342"/><use xlink:href="#5" y="8.684"/><use xlink:href="#16" y="10.855"/><use xlink:href="#17" y="15.197"/><use xlink:href="#18" y="19.539"/><use xlink:href="#19" y="21.71"/><use xlink:href="#20" y="23.881"/><use xlink:href="#21" y="26.052"/><use xlink:href="#22" y="30.394"/><use xlink:href="#23" y="36.907"/><use xlink:href="#24" y="41.249"/><use xlink:href="#25" y="43.42"/><use xlink:href="#26" y="45.591"/><use xlink:href="#27" y="47.762"/></svg><svg x="9516"><use xlink:href="#a"/><use xlink:href="#b" x="-.004" y="54.25"/><use xlink:href="#3"/><use xlink:href="#4" y="4.342"/><use xlink:href="#5" y="8.684"/><use xlink:href="#16" y="10.855"/><use xlink:href="#17" y="15.197"/><use xlink:href="#18" y="19.539"/><use xlink:href="#19" y="21.71"/><use xlink:href="#20" y="23.881"/><use xlink:href="#21" y="26.052"/><use xlink:href="#22" y="30.394"/><use xlink:href="#23" y="36.907"/><use xlink:href="#24" y="41.249"/><use xlink:href="#25" y="43.42"/><use xlink:href="#26" y="45.591"/><use xlink:href="#27" y="47.762"/></svg><svg x="9638"><use xlink:href="#a"/><use xlink:href="#b" x="-.004" y="54.25"/><use xlink:href="#3"/><use xlink:href="#4" y="4.342"/><use xlink:href="#5" y="8.684"/><use xlink:href="#16" y="10.855"/><use xlink:href="#17" y="15.197"/><use xlink:href="#18" y="19.539"/><use xlink:href="#19" y="21.71"/><use xlink:href="#20" y="23.881"/><use xlink:href="#21" y="26.052"/><use xlink:href="#22" y="30.394"/><use xlink:href="#23" y="36.907"/><use xlink:href="#24" y="41.249"/><use xlink:href="#25" y="43.42"/><use xlink:href="#26" y="45.591"/><use xlink:href="#27" y="47.762"/></svg><svg x="9760"><use xlink:href="#a"/><use xlink:href="#b" x="-.004" y="54.25"/><use xlink:href="#3"/><use xlink:href="#4" y="4.342"/><use xlink:href="#5" y="8.684"/><use xlink:href="#16" y="10.855"/><use xlink:href="#17" y="15.197"/><use xlink:href="#18" y="19.539"/><use xlink:href="#19" y="21.71"/><use xlink:href="#20" y="23.881"/><use xlink:href="#21" y="26.052"/><use xlink:href="#22" y="30.394"/><use xlink:href="#23" y="36.907"/><use xlink:href="#24" y="41.249"/><use xlink:href="#25" y="43.42"/><use xlink:href="#26" y="45.591"/><use xlink:href="#27" y="47.762"/></svg><svg x="9882"><use xlink:href="#a"/><use xlink:href="#b" x="7.996" y="54.25"/><use xlink:href="#3"/><use xlink:href="#4" y="4.342"/><use xlink:href="#5" y="8.684"/><use xlink:href="#16" y="10.855"/><use xlink:href="#17" y="15.197"/><use xlink:href="#18" y="19.539"/><use xlink:href="#19" y="21.71"/><use xlink:href="#20" y="23.881"/><use xlink:href="#21" y="26.052"/><use xlink:href="#22" y="30.394"/><use xlink:href="#23" y="36.907"/><use xlink:href="#24" y="41.249"/><use xlink:href="#25" y="43.42"/><use xlink:href="#26" y="45.591"/><use xlink:href="#27" y="47.762"/><use xlink:href="#28" y="54.275"/></svg><svg x="10004"><use xlink:href="#a"/><use xlink:href="#b" x="7.996" y="54.25"/><use xlink:href="#3"/><use xlink:href="#4" y="4.342"/><use xlink:href="#5" y="8.684"/><use xlink:href="#16" y="10.855"/><use xlink:href="#17" y="15.197"/><use xlink:href="#18" y="19.539"/><use xlink:href="#19" y="21.71"/><use xlink:href="#20" y="23.881"/><use xlink:href="#21" y="26.052"/><use xlink:href="#22" y="30.394"/><use xlink:href="#23" y="36.907"/><use xlink:href="#24" y="41.249"/><use xlink:href="#25" y="43.42"/><use xlink:href="#26" y="45.591"/><use xlink:href="#27" y="47.762"/><use xlink:href="#28" y="54.275"/></svg><svg x="10126"><use xlink:href="#a"/><use xlink:href="#b" x="-.004" y="56.421"/><use xlink:href="#3"/><use xlink:href="#4" y="4.342"/><use xlink:href="#5" y="8.684"/><use xlink:href="#16" y="10.855"/><use xlink:href="#17" y="15.197"/><use xlink:href="#18" y="19.539"/><use xlink:href="#19" y="21.71"/><use xlink:href="#20" y="23.881"/><use xlink:href="#21" y="26.052"/><use xlink:href="#22" y="30.394"/><use xlink:href="#23" y="36.907"/><use xlink:href="#24" y="41.249"/><use xlink:href="#25" y="43.42"/><use xlink:href="#26" y="45.591"/><use xlink:href="#27" y="47.762"/><use xlink:href="#28" y="54.275"/></svg></svg></g></svg></svg>