<svg xmlns="http://www.w3.org/2000/svg" version="1.0" width="645" height="585"><path d="M297.297 550.868c-13.775-15.436-48.17-45.53-76.434-66.874-83.744-63.242-95.142-72.394-129.144-103.703C29.035 322.57 2.414 264.58 2.505 185.95c.044-38.384 2.66-53.172 13.41-75.797 18.236-38.386 45.1-66.91 79.445-84.355 24.325-12.355 36.323-17.845 76.944-18.07 42.494-.234 51.44 4.72 76.435 18.452 30.425 16.715 61.74 52.436 68.213 77.811l3.999 15.672 9.86-21.584c55.715-121.973 233.598-120.148 295.501 3.032 19.638 39.076 21.794 122.513 4.38 169.512-22.715 61.31-65.38 108.05-164.006 179.677-64.68 46.974-137.885 118.046-142.98 128.028-5.916 11.588-.283 1.816-26.409-27.46z" fill="#d85151"/></svg>