<?xml version="1.0" standalone="no"?>
<!DOCTYPE svg PUBLIC "-//W3C//DTD SVG 20010904//EN"
 "http://www.w3.org/TR/2001/REC-SVG-20010904/DTD/svg10.dtd">
<svg version="1.0" xmlns="http://www.w3.org/2000/svg"
 width="2250.000000pt" height="2250.000000pt" viewBox="0 0 2250.000000 2250.000000"
 preserveAspectRatio="xMidYMid meet">
<metadata>
Created by potrace 1.11, written by Peter Selinger 2001-2013
</metadata>
<g transform="translate(0.000000,2250.000000) scale(0.100000,-0.100000)"
fill="#000000" stroke="none">
<path d="M11835 16261 c-1826 -1826 -3321 -3324 -3323 -3329 -3 -9 1984 -2002
1997 -2002 3 0 1502 1496 3331 3325 l3325 3325 -300 300 c-1108 1109 -1696
1695 -1703 1698 -4 1 -1501 -1492 -3327 -3317z"/>
<path d="M5388 19496 c-4 -10 -3 -2800 1 -2817 0 -4 1169 -7 2596 -7 l2595 0
0 1418 0 1418 -2594 0 c-1937 0 -2596 -3 -2598 -12z"/>
<path d="M14418 12293 c-549 -549 -998 -1003 -998 -1008 0 -6 8 -18 18 -26 40
-36 196 -208 253 -279 186 -234 355 -522 461 -790 58 -144 135 -387 153 -478
61 -317 70 -410 70 -692 0 -189 -6 -315 -21 -415 -7 -51 -41 -244 -48 -270 -6
-26 -35 -144 -42 -170 -3 -11 -6 -24 -8 -30 -31 -124 -128 -368 -217 -545
-398 -791 -1136 -1383 -1999 -1605 -64 -17 -81 -21 -130 -30 -14 -3 -36 -7
-50 -10 -59 -12 -139 -25 -185 -30 -27 -3 -63 -7 -80 -10 -159 -23 -573 -23
-693 0 -9 1 -44 6 -77 9 -33 4 -67 9 -75 11 -8 2 -31 6 -50 9 -66 11 -95 17
-220 48 -110 27 -314 91 -377 118 -13 6 -33 14 -45 19 -178 71 -603 307 -616
342 -2 5 -8 9 -14 9 -6 0 -25 12 -43 28 -18 15 -48 38 -66 52 -124 93 -378
336 -464 445 -22 28 -43 52 -46 55 -17 16 -136 180 -191 265 -147 228 -260
460 -343 710 -20 61 -38 117 -40 125 -2 8 -18 69 -34 135 -33 132 -39 162 -56
285 -4 30 -9 64 -11 75 -7 36 -18 210 -18 293 l-1 82 -1420 -2 -1419 -3 1 -50
c2 -185 23 -524 38 -625 2 -14 7 -47 10 -75 3 -27 8 -61 10 -75 3 -14 7 -47
11 -75 3 -27 8 -59 10 -70 2 -11 7 -36 10 -55 23 -141 104 -498 134 -595 6
-16 31 -97 56 -180 181 -587 473 -1164 858 -1700 78 -108 269 -347 359 -449
182 -204 515 -526 674 -651 14 -11 44 -35 67 -54 81 -67 283 -215 411 -301
282 -189 545 -335 870 -485 62 -29 338 -143 365 -151 8 -2 102 -34 209 -70
171 -58 554 -162 651 -178 19 -3 46 -8 60 -11 62 -14 372 -64 430 -69 36 -4
75 -8 85 -10 11 -2 54 -7 95 -10 41 -3 113 -9 160 -13 108 -9 674 -9 800 0
151 11 257 22 330 32 14 2 52 7 85 11 33 3 62 8 65 9 3 2 29 6 59 10 30 4 63
9 75 11 12 2 37 7 56 10 30 5 288 58 330 68 59 15 257 69 315 86 39 12 77 23
85 25 26 6 241 81 329 114 570 213 1225 594 1662 966 19 16 57 48 84 70 149
121 513 484 658 656 254 301 513 671 668 955 23 44 51 95 62 114 123 217 300
630 400 935 39 119 112 366 122 415 2 8 15 67 30 130 33 143 70 339 85 450 6
47 13 96 15 110 6 43 14 113 20 181 4 36 8 86 10 110 23 244 23 776 1 979 -2
19 -7 71 -11 115 -4 44 -9 88 -10 97 -2 9 -6 43 -10 75 -3 32 -8 65 -10 73 -2
8 -6 33 -9 55 -8 68 -25 165 -52 290 -13 66 -27 131 -30 145 -5 25 -21 92 -29
120 -2 8 -15 58 -29 110 -128 487 -353 1016 -634 1490 -115 193 -404 610 -424
610 -4 0 -8 4 -8 10 0 5 -9 20 -19 32 -187 223 -259 305 -372 421 l-134 138
-997 -998z"/>
</g>
</svg>
