<svg version="1.0" xmlns="http://www.w3.org/2000/svg" width="3000" height="3000" viewBox="0 0 2250 2250"><path d="M1183.5 623.9c-182.6 182.6-332.1 332.4-332.3 332.9-.3.9 198.4 200.2 199.7 200.2.3 0 150.2-149.6 333.1-332.5L1716.5 492l-30-30c-110.8-110.9-169.6-169.5-170.3-169.8-.4-.1-150.1 149.2-332.7 331.7zM538.8 300.4c-.4 1-.3 280 .1 281.7 0 .4 116.9.7 259.6.7H1058V299.2H798.6c-193.7 0-259.6.3-259.8 1.2z"/><path d="M1441.8 1020.7c-54.9 54.9-99.8 100.3-99.8 100.8 0 .6.8 1.8 1.8 2.6 4 3.6 19.6 20.8 25.3 27.9 18.6 23.4 35.5 52.2 46.1 79 5.8 14.4 13.5 38.7 15.3 47.8 6.1 31.7 7 41 7 69.2 0 18.9-.6 31.5-2.1 41.5-.7 5.1-4.1 24.4-4.8 27-.6 2.6-3.5 14.4-4.2 17-.3 1.1-.6 2.4-.8 3-3.1 12.4-12.8 36.8-21.7 54.5-39.8 79.1-113.6 138.3-199.9 160.5-6.4 1.7-8.1 2.1-13 3-1.4.3-3.6.7-5 1-5.9 1.2-13.9 2.5-18.5 3-2.7.3-6.3.7-8 1-15.9 2.3-57.3 2.3-69.3 0-.9-.1-4.4-.6-7.7-.9-3.3-.4-6.7-.9-7.5-1.1-.8-.2-3.1-.6-5-.9-6.6-1.1-9.5-1.7-22-4.8-11-2.7-31.4-9.1-37.7-11.8-1.3-.6-3.3-1.4-4.5-1.9-17.8-7.1-60.3-30.7-61.6-34.2-.2-.5-.8-.9-1.4-.9-.6 0-2.5-1.2-4.3-2.8-1.8-1.5-4.8-3.8-6.6-5.2-12.4-9.3-37.8-33.6-46.4-44.5-2.2-2.8-4.3-5.2-4.6-5.5-1.7-1.6-13.6-18-19.1-26.5-14.7-22.8-26-46-34.3-71-2-6.1-3.8-11.7-4-12.5-.2-.8-1.8-6.9-3.4-13.5-3.3-13.2-3.9-16.2-5.6-28.5-.4-3-.9-6.4-1.1-7.5-.7-3.6-1.8-21-1.8-29.3l-.1-8.2-142 .2-141.9.3.1 5c.2 18.5 2.3 52.4 3.8 62.5.2 1.4.7 4.7 1 7.5.3 2.7.8 6.1 1 7.5.3 1.4.7 4.7 1.1 7.5.3 2.7.8 5.9 1 7 .2 1.1.7 3.6 1 5.5 2.3 14.1 10.4 49.8 13.4 59.5.6 1.6 3.1 9.7 5.6 18 18.1 58.7 47.3 116.4 85.8 170 7.8 10.8 26.9 34.7 35.9 44.9 18.2 20.4 51.5 52.6 67.4 65.1 1.4 1.1 4.4 3.5 6.7 5.4 8.1 6.7 28.3 21.5 41.1 30.1 28.2 18.9 54.5 33.5 87 48.5 6.2 2.9 33.8 14.3 36.5 15.1.8.2 10.2 3.4 20.9 7 17.1 5.8 55.4 16.2 65.1 17.8 1.9.3 4.6.8 6 1.1 6.2 1.4 37.2 6.4 43 6.9 3.6.4 7.5.8 8.5 1 1.1.2 5.4.7 9.5 1 4.1.3 11.3.9 16 1.3 10.8.9 67.4.9 80 0 15.1-1.1 25.7-2.2 33-3.2 1.4-.2 5.2-.7 8.5-1.1 3.3-.3 6.2-.8 6.5-.9.3-.2 2.9-.6 5.9-1 3-.4 6.3-.9 7.5-1.1 1.2-.2 3.7-.7 5.6-1 3-.5 28.8-5.8 33-6.8 5.9-1.5 25.7-6.9 31.5-8.6 3.9-1.2 7.7-2.3 8.5-2.5 2.6-.6 24.1-8.1 32.9-11.4 57-21.3 122.5-59.4 166.2-96.6 1.9-1.6 5.7-4.8 8.4-7 14.9-12.1 51.3-48.4 65.8-65.6 25.4-30.1 51.3-67.1 66.8-95.5 2.3-4.4 5.1-9.5 6.2-11.4 12.3-21.7 30-63 40-93.5 3.9-11.9 11.2-36.6 12.2-41.5.2-.8 1.5-6.7 3-13 3.3-14.3 7-33.9 8.5-45 .6-4.7 1.3-9.6 1.5-11 .6-4.3 1.4-11.3 2-18.1.4-3.6.8-8.6 1-11 2.3-24.4 2.3-77.6.1-97.9-.2-1.9-.7-7.1-1.1-11.5-.4-4.4-.9-8.8-1-9.7-.2-.9-.6-4.3-1-7.5-.3-3.2-.8-6.5-1-7.3-.2-.8-.6-3.3-.9-5.5-.8-6.8-2.5-16.5-5.2-29-1.3-6.6-2.7-13.1-3-14.5-.5-2.5-2.1-9.2-2.9-12-.2-.8-1.5-5.8-2.9-11-12.8-48.7-35.3-101.6-63.4-149-11.5-19.3-40.4-61-42.4-61-.4 0-.8-.4-.8-1 0-.5-.9-2-1.9-3.2-18.7-22.3-25.9-30.5-37.2-42.1l-13.4-13.8-99.7 99.8z"/></svg>