<svg data-name="Layer 1" xmlns="http://www.w3.org/2000/svg" width="845" height="529" viewBox="0 0 845 768.35"><path d="M827.406 768.35q-47.95-9.211-92.234-15.831l11.78-25.512c-3.931-1.545-21.29 13.054-21.29 13.054l15.621-74.073c-19.815 2.673-30.187 78.311-30.187 78.311l-22.025-25.598 10.597 28.765c-90.363-12.091-168.427-16.619-234.102-16.844l10.082-21.835c-3.931-1.546-21.29 13.053-21.29 13.053l15.621-74.073c-19.815 2.673-30.187 78.312-30.187 78.312l-22.025-25.598 11.224 30.466c-55.063 1.187-99.98 5.38-134.655 10.175 10.246-34.021 44.719-66.353 44.719-66.353-26.263 8.767-40.08 23.488-47.324 37.218-.386-42.019 3.615-119.919 31.42-206.14 0 0-54.743 132.928-48.183 222.198l.764 15.852c-45.989 7.372-69.126 15.067-69.126 15.067z" fill="#3f3d56"/><path d="M796.146 763.486c-.229-.375-5.64-9.41-7.516-28.172-1.72-17.213-.614-46.227 14.432-86.698 28.506-76.671-6.569-138.533-6.927-139.15l1.73-1.004c.091.157 9.142 15.93 14.489 41.044a179.061 179.061 0 01-7.416 99.807c-28.457 76.54-7.301 112.773-7.084 113.13z" fill="#3f3d56"/><circle cx="785" cy="491.964" r="13" fill="#ef442d"/><circle cx="826" cy="539.964" r="13" fill="#3f3d56"/><circle cx="798" cy="571.964" r="13" fill="#ef442d"/><circle cx="832" cy="598.964" r="13" fill="#ef442d"/><circle cx="788" cy="640.964" r="13" fill="#3f3d56"/><path d="M804 763.964s-13-32 26-56zm-15.988-.58s-5.916-34.03-51.709-33.738z" fill="#3f3d56"/><path d="M529.336 406.786c2.266-.083 4.571-.206 6.851-.366l.161 2.293c-2.306.162-4.636.286-6.927.37zM507.738.442A207.92 207.92 0 01516.994 0l.058 2.299c-4.58.115-9.259.392-13.846.82l-.212-2.29q2.362-.22 4.744-.387zm-18.656 2.157l.368 2.27a203.55 203.55 0 00-13.603 2.684l-.522-2.24A206.736 206.736 0 01489.082 2.6zm41.933-2.48c4.66.198 9.364.56 13.982 1.077l-.256 2.284a202.57 202.57 0 00-13.823-1.064zm-69.228 8.847l.674 2.2c-4.4 1.35-8.81 2.872-13.107 4.523l-.825-2.145a203.775 203.775 0 0113.258-4.578zm97.086-5.733a204.04 204.04 0 0113.702 2.989l-.566 2.227a202.455 202.455 0 00-13.55-2.954zM435.62 19.025l.972 2.084a202.805 202.805 0 00-12.346 6.28l-1.111-2.013a205.482 205.482 0 0112.485-6.35zm150.439-8.87a204.274 204.274 0 0113.175 4.854l-.869 2.13a201.864 201.864 0 00-13.026-4.8zM411.112 32.57l1.247 1.932a203.532 203.532 0 00-11.374 7.917l-1.378-1.842a206.211 206.211 0 0111.505-8.007zM612.04 20.757a205.28 205.28 0 0112.38 6.61l-1.153 1.99a203.533 203.533 0 00-12.24-6.537zM388.676 49.354l1.5 1.743a203.872 203.872 0 00-10.195 9.396l-1.616-1.636a205.775 205.775 0 0110.31-9.503zm247.64-14.544a206.674 206.674 0 0111.36 8.233l-1.413 1.814a205.132 205.132 0 00-11.232-8.14zm-267.59 34.233l1.723 1.523a205.015 205.015 0 00-8.827 10.699l-1.823-1.403a207.53 207.53 0 018.927-10.819zm289.72-17.013a206.871 206.871 0 0110.13 9.699l-1.645 1.605a204.583 204.583 0 00-10.017-9.59zM351.629 91.27l1.913 1.274c-2.55 3.829-5.003 7.8-7.291 11.803l-1.996-1.141a205.523 205.523 0 017.374-11.937zm326.392-19.178a205.757 205.757 0 018.713 10.981l-1.849 1.368a203.896 203.896 0 00-8.616-10.86zm-340.306 43.532l2.068 1.001a202.451 202.451 0 00-5.61 12.696l-2.134-.857a203.853 203.853 0 015.676-12.84zm356.96-21.002a204.69 204.69 0 017.128 12.064l-2.019 1.1a202.968 202.968 0 00-7.047-11.927zM327.26 141.666l2.188.707a202.552 202.552 0 00-3.814 13.354l-2.231-.555a203.735 203.735 0 013.857-13.506zm380.822-22.46a204.154 204.154 0 015.409 12.94l-2.151.813a202.01 202.01 0 00-5.347-12.795zm-387.59 49.687l2.266.4a202.21 202.21 0 00-1.936 13.73l-2.286-.243c.49-4.627 1.15-9.299 1.957-13.887zm397.5-23.464a204.417 204.417 0 013.575 13.56l-2.242.51c-1.02-4.49-2.21-9-3.536-13.407zm-400.454 51.338l2.297.085c-.17 4.594-.183 9.259-.04 13.866l-2.298.071a207.44 207.44 0 01.04-14.022zm406.665-24.005a208.599 208.599 0 011.693 13.92l-2.29.2a205.442 205.442 0 00-1.675-13.765zm-403.508 51.796a205.226 205.226 0 001.827 13.746l-2.267.38a207.3 207.3 0 01-1.849-13.9zm4.586 27.335a203.104 203.104 0 003.689 13.366l-2.194.688a204.688 204.688 0 01-3.73-13.52zm8.29 26.446a202.265 202.265 0 005.485 12.718l-2.078.983a204.044 204.044 0 01-5.547-12.863zm11.837 25.03a202.83 202.83 0 007.185 11.85l-1.924 1.26a205.2 205.2 0 01-7.266-11.985zm15.167 23.183a204.506 204.506 0 008.74 10.762l-1.734 1.51a206.282 206.282 0 01-8.84-10.884zm18.196 20.904a204.334 204.334 0 0010.125 9.477l-1.513 1.731a207.13 207.13 0 01-10.24-9.583zm20.874 18.243c3.67 2.79 7.48 5.486 11.323 8.014l-1.263 1.921a206.788 206.788 0 01-11.451-8.105zm23.166 15.24a204.26 204.26 0 0012.314 6.396l-.99 2.076a206.32 206.32 0 01-12.453-6.47zm25.04 11.933a201.668 201.668 0 0013.078 4.65l-.695 2.192a204.64 204.64 0 01-13.228-4.702zm26.448 8.386a201.872 201.872 0 0013.582 2.8l-.386 2.267a204.041 204.041 0 01-13.737-2.832zm27.324 4.657c4.577.458 9.232.764 13.837.908l-.073 2.3a206.258 206.258 0 01-13.993-.92zM724.355 201.07l2.299-.042a205.3 205.3 0 01.01 6.936l-2.3-.035c.036-2.256.033-4.564-.009-6.859z" fill="#e6e6e6"/><path fill="#ffb8b8" d="M536.5 652.464l-9 32 23 4 13-27-27-9zm147 8l6 36 23 2-5-41-24 3z"/><circle cx="622.5" cy="230.464" r="29" fill="#ffb8b8"/><path d="M604.5 248.464s5 31 4 34 31.5-4.5 31.5-4.5 1.5-32.5 2.5-34.5zm45 92l6 67-16-2v-60l10-5z" fill="#ffb8b8"/><path d="M648.345 277.43a8.301 8.301 0 00-8.941-6.24c-12.066 1.29-35.425 4.056-36.904 6.274-1.293 1.94-10.528 19.345-16.895 31.408a102.074 102.074 0 01-10.43 15.653c-3.69 4.658-7.675 13.564-2.675 27.94 8 23 9 55 9 55l63-14s-5-28 7-46c9.463-14.196.891-53.888-3.155-70.036z" fill="#3f3d56"/><path d="M577.5 395.464l6 49-52 213s40 15 40 14 60-150 60-150l49 146 43-4-43-185s-.5-52.5-31-80l-5.972-15.407S605.5 362.464 577.5 395.464zm138 293l-36-6-2 23-18 10s-28 1-18 22 36 16 36 16 27 15 44 9c0 0 3.5-10.5 2-14-1.624-3.79-7-32-7-32zm-155-12l-36-6-2 23-18 10s-28 1-18 22 36 16 36 16 27 15 44 9c0 0 3.5-7.5 2-14-.927-4.017-7-32-7-32z" fill="#2f2e41"/><path d="M622.5 275.464s-25.7-3.171-27.35 15.414 2.35 81.586 2.35 81.586l-24 85s-33 46-12 42 27-39 27-39l30-73 11.523-60.909a96.89 96.89 0 00.154-35.912c-1.472-7.826-3.852-14.754-7.677-15.179z" fill="#ffb8b8"/><path d="M639.214 187.757c-19.095 0-34.574 21.454-34.574 47.919V269.3h8.28l4.794-12.458-1.198 12.458h53.223l4.358-11.325-1.09 11.325H679v-26.4c0-30.455-17.813-55.143-39.786-55.143z" fill="#2f2e41"/><path d="M642.849 195.21a22.645 22.645 0 00-17.868-9.119h-.847c-16.345 0-29.595 14.79-29.595 33.035h5.477l.884-6.733 1.297 6.733h32.482l2.721-5.696-.68 5.696h6.39q4.473 22.213-12.853 44.426h10.885l5.443-11.392-1.361 11.392h20.75l4.082-26.2c0-19.622-11.4-36.26-27.207-42.143z" fill="#2f2e41"/><path fill="#3f3d56" d="M0 142.964h435v33H0zm0 84h435v33H0zm0 84h435v33H0z"/><circle cx="217" cy="159.464" r="33" fill="#ef442d"/><circle cx="51" cy="243.464" r="33" fill="#ef442d"/><circle cx="340" cy="327.464" r="33" fill="#ef442d"/></svg>